<svg xmlns="http://www.w3.org/2000/svg" xmlns:xlink="http://www.w3.org/1999/xlink" width="500" zoomAndPan="magnify" viewBox="0 0 375 325.999991" height="200" preserveAspectRatio="xMidYMid meet" version="1.0"><defs><g/><clipPath id="90115765da"><path d="M 173.066406 165.609375 L 310.636719 165.609375 L 310.636719 209.382812 L 173.066406 209.382812 Z M 173.066406 165.609375 " clip-rule="nonzero"/></clipPath><clipPath id="3aa2cbb478"><path d="M 205.507812 165.609375 L 304.117188 165.609375 C 306.265625 165.609375 308.25 166.765625 309.316406 168.632812 C 310.378906 170.5 310.359375 172.796875 309.265625 174.644531 L 294.042969 200.347656 C 290.726562 205.949219 284.703125 209.382812 278.195312 209.382812 L 179.585938 209.382812 C 177.4375 209.382812 175.453125 208.230469 174.386719 206.363281 C 173.320312 204.492188 173.339844 202.199219 174.4375 200.347656 L 189.65625 174.644531 C 192.972656 169.046875 199 165.609375 205.507812 165.609375 Z M 205.507812 165.609375 " clip-rule="nonzero"/></clipPath></defs><rect x="-37.5" width="450" fill="#ffffff" y="-37.499999" height="449.999989" fill-opacity="1"/><rect x="-37.5" width="450" fill="#ffffff" y="-37.499999" height="449.999989" fill-opacity="1"/><g clip-path="url(#90115765da)"><g clip-path="url(#3aa2cbb478)"><path fill="#000000" d="M 169.085938 165.609375 L 314.617188 165.609375 L 314.617188 209.382812 L 169.085938 209.382812 Z M 169.085938 165.609375 " fill-opacity="1" fill-rule="nonzero"/></g></g><g fill="#000000" fill-opacity="1"><g transform="translate(62.324194, 199.765894)"><g><path d="M 14.671875 -26.015625 C 16.585938 -26.015625 18.472656 -25.617188 20.328125 -24.828125 C 22.179688 -24.046875 23.757812 -22.992188 25.0625 -21.671875 L 21.265625 -17.171875 C 20.429688 -18.203125 19.429688 -19.019531 18.265625 -19.625 C 17.097656 -20.226562 15.9375 -20.53125 14.78125 -20.53125 C 12.738281 -20.53125 11.03125 -19.8125 9.65625 -18.375 C 8.28125 -16.9375 7.59375 -15.160156 7.59375 -13.046875 C 7.59375 -10.878906 8.28125 -9.070312 9.65625 -7.625 C 11.03125 -6.175781 12.738281 -5.453125 14.78125 -5.453125 C 15.863281 -5.453125 16.988281 -5.722656 18.15625 -6.265625 C 19.320312 -6.804688 20.359375 -7.546875 21.265625 -8.484375 L 25.09375 -4.421875 C 23.695312 -2.992188 22.046875 -1.847656 20.140625 -0.984375 C 18.234375 -0.128906 16.335938 0.296875 14.453125 0.296875 C 10.566406 0.296875 7.332031 -0.96875 4.75 -3.5 C 2.175781 -6.03125 0.890625 -9.1875 0.890625 -12.96875 C 0.890625 -16.6875 2.203125 -19.789062 4.828125 -22.28125 C 7.453125 -24.769531 10.734375 -26.015625 14.671875 -26.015625 Z M 14.671875 -26.015625 "/></g></g></g><g fill="#000000" fill-opacity="1"><g transform="translate(85.731405, 199.765894)"><g><path d="M 8.921875 -19.859375 L 8.921875 -16.515625 C 10.316406 -18.898438 12.46875 -20.113281 15.375 -20.15625 L 15.375 -14.40625 C 13.550781 -14.582031 12.0625 -14.28125 10.90625 -13.5 C 9.75 -12.726562 9.085938 -11.628906 8.921875 -10.203125 L 8.921875 0 L 2.546875 0 L 2.546875 -19.859375 Z M 8.921875 -19.859375 "/></g></g></g><g fill="#000000" fill-opacity="1"><g transform="translate(99.370168, 199.765894)"><g><path d="M 11.234375 -20.09375 C 14.679688 -20.09375 17.269531 -19.035156 19 -16.921875 C 20.726562 -14.804688 21.484375 -11.90625 21.265625 -8.21875 L 7.296875 -8.21875 C 7.617188 -7.039062 8.179688 -6.128906 8.984375 -5.484375 C 9.796875 -4.847656 10.796875 -4.53125 11.984375 -4.53125 C 13.796875 -4.53125 15.378906 -5.207031 16.734375 -6.5625 L 20.09375 -3.28125 C 17.945312 -0.945312 15.054688 0.21875 11.421875 0.21875 C 8.203125 0.21875 5.640625 -0.703125 3.734375 -2.546875 C 1.835938 -4.390625 0.890625 -6.832031 0.890625 -9.875 C 0.890625 -12.945312 1.835938 -15.414062 3.734375 -17.28125 C 5.640625 -19.15625 8.140625 -20.09375 11.234375 -20.09375 Z M 7.1875 -11.640625 L 15.15625 -11.640625 C 15.15625 -12.847656 14.800781 -13.820312 14.09375 -14.5625 C 13.394531 -15.300781 12.46875 -15.671875 11.3125 -15.671875 C 10.226562 -15.671875 9.316406 -15.304688 8.578125 -14.578125 C 7.847656 -13.847656 7.382812 -12.867188 7.1875 -11.640625 Z M 7.1875 -11.640625 "/></g></g></g><g fill="#000000" fill-opacity="1"><g transform="translate(119.459795, 199.765894)"><g><path d="M 11.46875 -20.15625 C 14.1875 -20.15625 16.300781 -19.519531 17.8125 -18.25 C 19.332031 -16.988281 20.101562 -15.226562 20.125 -12.96875 L 20.125 0 L 13.890625 0 L 13.890625 -2.28125 C 12.585938 -0.5625 10.5625 0.296875 7.8125 0.296875 C 5.726562 0.296875 4.070312 -0.28125 2.84375 -1.4375 C 1.613281 -2.59375 1 -4.09375 1 -5.9375 C 1 -7.820312 1.65625 -9.285156 2.96875 -10.328125 C 4.28125 -11.378906 6.164062 -11.914062 8.625 -11.9375 L 13.859375 -11.9375 L 13.859375 -12.234375 C 13.859375 -13.222656 13.53125 -13.992188 12.875 -14.546875 C 12.226562 -15.097656 11.265625 -15.375 9.984375 -15.375 C 8.191406 -15.375 6.210938 -14.820312 4.046875 -13.71875 L 2.25 -17.90625 C 5.46875 -19.40625 8.539062 -20.15625 11.46875 -20.15625 Z M 9.765625 -4.015625 C 10.773438 -4.015625 11.660156 -4.265625 12.421875 -4.765625 C 13.179688 -5.273438 13.660156 -5.9375 13.859375 -6.75 L 13.859375 -8.515625 L 9.84375 -8.515625 C 7.925781 -8.515625 6.96875 -7.800781 6.96875 -6.375 C 6.96875 -5.632812 7.210938 -5.054688 7.703125 -4.640625 C 8.191406 -4.222656 8.878906 -4.015625 9.765625 -4.015625 Z M 9.765625 -4.015625 "/></g></g></g><g fill="#000000" fill-opacity="1"><g transform="translate(139.475696, 199.765894)"><g><path d="M 14.109375 -5.484375 L 15.375 -1.0625 C 13.820312 -0.15625 12.050781 0.296875 10.0625 0.296875 C 8.09375 0.296875 6.5 -0.25 5.28125 -1.34375 C 4.070312 -2.4375 3.46875 -3.992188 3.46875 -6.015625 L 3.46875 -14.78125 L 0.703125 -14.78125 L 0.703125 -18.953125 L 3.46875 -18.953125 L 3.46875 -24.46875 L 9.796875 -24.46875 L 9.796875 -18.984375 L 15 -18.984375 L 15 -14.78125 L 9.796875 -14.78125 L 9.796875 -7 C 9.796875 -6.238281 9.945312 -5.679688 10.25 -5.328125 C 10.5625 -4.972656 11.023438 -4.804688 11.640625 -4.828125 C 12.234375 -4.828125 13.054688 -5.046875 14.109375 -5.484375 Z M 14.109375 -5.484375 "/></g></g></g><g fill="#000000" fill-opacity="1"><g transform="translate(153.40935, 199.765894)"><g><path d="M 11.234375 -20.09375 C 14.679688 -20.09375 17.269531 -19.035156 19 -16.921875 C 20.726562 -14.804688 21.484375 -11.90625 21.265625 -8.21875 L 7.296875 -8.21875 C 7.617188 -7.039062 8.179688 -6.128906 8.984375 -5.484375 C 9.796875 -4.847656 10.796875 -4.53125 11.984375 -4.53125 C 13.796875 -4.53125 15.378906 -5.207031 16.734375 -6.5625 L 20.09375 -3.28125 C 17.945312 -0.945312 15.054688 0.21875 11.421875 0.21875 C 8.203125 0.21875 5.640625 -0.703125 3.734375 -2.546875 C 1.835938 -4.390625 0.890625 -6.832031 0.890625 -9.875 C 0.890625 -12.945312 1.835938 -15.414062 3.734375 -17.28125 C 5.640625 -19.15625 8.140625 -20.09375 11.234375 -20.09375 Z M 7.1875 -11.640625 L 15.15625 -11.640625 C 15.15625 -12.847656 14.800781 -13.820312 14.09375 -14.5625 C 13.394531 -15.300781 12.46875 -15.671875 11.3125 -15.671875 C 10.226562 -15.671875 9.316406 -15.304688 8.578125 -14.578125 C 7.847656 -13.847656 7.382812 -12.867188 7.1875 -11.640625 Z M 7.1875 -11.640625 "/></g></g></g><g fill="#ffffff" fill-opacity="1"><g transform="translate(197.372437, 199.765894)"><g><path d="M 26.390625 0 L 20.609375 0 L 8.734375 -15.890625 L 8.734375 0 L 2.578125 0 L 2.578125 -25.796875 L 8.359375 -25.796875 L 20.265625 -9.875 L 20.265625 -25.796875 L 26.390625 -25.796875 Z M 26.390625 0 "/></g></g></g><g fill="#ffffff" fill-opacity="1"><g transform="translate(224.244681, 199.765894)"><g><path d="M 11.765625 -20.09375 C 15.003906 -20.09375 17.617188 -19.160156 19.609375 -17.296875 C 21.597656 -15.441406 22.59375 -12.988281 22.59375 -9.9375 C 22.59375 -6.894531 21.597656 -4.441406 19.609375 -2.578125 C 17.617188 -0.710938 15.003906 0.21875 11.765625 0.21875 C 8.492188 0.21875 5.863281 -0.710938 3.875 -2.578125 C 1.882812 -4.441406 0.890625 -6.894531 0.890625 -9.9375 C 0.890625 -12.988281 1.882812 -15.441406 3.875 -17.296875 C 5.863281 -19.160156 8.492188 -20.09375 11.765625 -20.09375 Z M 11.765625 -15.03125 C 10.429688 -15.03125 9.351562 -14.550781 8.53125 -13.59375 C 7.707031 -12.632812 7.296875 -11.394531 7.296875 -9.875 C 7.296875 -8.332031 7.707031 -7.085938 8.53125 -6.140625 C 9.351562 -5.191406 10.429688 -4.71875 11.765625 -4.71875 C 13.066406 -4.71875 14.128906 -5.191406 14.953125 -6.140625 C 15.773438 -7.085938 16.1875 -8.332031 16.1875 -9.875 C 16.1875 -11.394531 15.773438 -12.632812 14.953125 -13.59375 C 14.128906 -14.550781 13.066406 -15.03125 11.765625 -15.03125 Z M 11.765625 -15.03125 "/></g></g></g><g fill="#ffffff" fill-opacity="1"><g transform="translate(245.624477, 199.765894)"><g><path d="M 13.828125 0 L 7.296875 0 L -0.1875 -19.859375 L 6.375 -19.859375 L 10.65625 -5.828125 L 14.96875 -19.859375 L 21.296875 -19.859375 Z M 13.828125 0 "/></g></g></g><g fill="#ffffff" fill-opacity="1"><g transform="translate(264.57137, 199.765894)"><g><path d="M 11.46875 -20.15625 C 14.1875 -20.15625 16.300781 -19.519531 17.8125 -18.25 C 19.332031 -16.988281 20.101562 -15.226562 20.125 -12.96875 L 20.125 0 L 13.890625 0 L 13.890625 -2.28125 C 12.585938 -0.5625 10.5625 0.296875 7.8125 0.296875 C 5.726562 0.296875 4.070312 -0.28125 2.84375 -1.4375 C 1.613281 -2.59375 1 -4.09375 1 -5.9375 C 1 -7.820312 1.65625 -9.285156 2.96875 -10.328125 C 4.28125 -11.378906 6.164062 -11.914062 8.625 -11.9375 L 13.859375 -11.9375 L 13.859375 -12.234375 C 13.859375 -13.222656 13.53125 -13.992188 12.875 -14.546875 C 12.226562 -15.097656 11.265625 -15.375 9.984375 -15.375 C 8.191406 -15.375 6.210938 -14.820312 4.046875 -13.71875 L 2.25 -17.90625 C 5.46875 -19.40625 8.539062 -20.15625 11.46875 -20.15625 Z M 9.765625 -4.015625 C 10.773438 -4.015625 11.660156 -4.265625 12.421875 -4.765625 C 13.179688 -5.273438 13.660156 -5.9375 13.859375 -6.75 L 13.859375 -8.515625 L 9.84375 -8.515625 C 7.925781 -8.515625 6.96875 -7.800781 6.96875 -6.375 C 6.96875 -5.632812 7.210938 -5.054688 7.703125 -4.640625 C 8.191406 -4.222656 8.878906 -4.015625 9.765625 -4.015625 Z M 9.765625 -4.015625 "/></g></g></g></svg>